<svg width="387" height="108" clip-rule="evenodd" fill-rule="evenodd" image-rendering="optimizeQuality" shape-rendering="geometricPrecision" text-rendering="geometricPrecision" version="1.1" viewBox="0 0 387 108" xml:space="preserve" xmlns="http://www.w3.org/2000/svg">
    <g>
        <path d="m45.543 33.524c-1.09-1.084-7.33-3.411-8.89-3.8784-5.31 11.019-23.88 9.1591-25.28-4.505a13.15 13.077 0 0 1 17-14.43 11.25 11.188 0 0 1 6.87 4.3459l-17 6.2055 2.81 7.7569 26.36-9.1293c-0.47-10.243-11.24-19.889-22.94-19.889-26.37 0-32.15 36.796-7.33 45.159a22 21.878 0 0 0 17.63-1.084c3.9-1.8696 9.21-6.6729 10.77-10.551zm89.68-8.3834c-2-18.308 24.34-20.794 26.68-3.8784a13.7 13.624 0 0 1-11.68 15.534c-7.78 1.074-14-4.8232-15-11.655zm11.08-24.673c-12.17 1.3923-22.31 11.635-20.91 25.299 1.4 12.103 12.17 22.187 25.9 20.327 11.7-0.93481 21.85-12.103 20.44-25.299a23.08 22.952 0 0 0-25.39-20.327zm0 71.234c7.8-1.8597 14.2 3.8784 15.6 10.243a13.91 13.833 0 0 1-10.61 15.981c-17.17 3.4111-23.41-22.813-5-26.224zm-20.91 15.056a23 22.873 0 0 0 25.44 20.954 23.28 23.151 0 0 0-4.49-46.054c-12.17 0.93481-21.85 12.103-20.91 25.14zm-94.56 20.486v-10.243c-4.37 1.3923-6.4 2.4862-11.24 0.4674-10.77-4.3459-11.7-20.327 0-25.14 7.8-3.411 15.14 1.8597 17.48 7.1403 2 4.9724 1.09 20.019 1.09 26.692h9.67v-20.804c0-7.2895-1.87-11.178-5.31-15.514-5.93-7.2895-19.51-11.178-30.27-4.3459-20.44 12.57-10.3 47.486 18.57 41.768zm22.94-44.224c-1.09 4.8133-0.47 26.692 0.47 31.038 4.37 18 31.21 18.895 36.51 0 0.94-4.3459 1.56-26.224 0.94-31.038h-10.11c-2 14.589 4.37 34.916-8.74 34.916-3.43 0-6.4-1.8597-7.33-3.8784-3.43-5.2807-1.09-21.262-2-31.038zm37.92-61.657h-10.11v21.878c0 3.411-0.47 6.832-2 9.1591-2.81 4.9724-10.61 5.4298-14 0-1.56-2.3271-2-5.7381-2-9.1591 0-4.8133 0.94-18 0-21.878h-9.67c-1.09 2.4862-0.47 27.159 0.47 30.57 4.37 18.895 31.68 18.895 36.51 0.4674 1.56-5.7381 0.94-23.748 0.94-31.038zm30.31 96.096c-3 0-5.77 0-8.27-1.3923-6.4-3.8784-5.31-15.514-4.84-23.281h12.64v-9.7757h-12.64v-12.113h-10.3c0 6.832-0.47 35.801 0 40.197 1.56 10.71 11.24 18 23.88 16.14zm-23.41-52.299 10.3 0.4674c0-9.7757-2-27.626 3.43-33.056 3.43-2.9834 5.31-1.3923 10.14-2.3271v-9.7757c-11.7-1.3923-20 4.3459-22.31 11.635-2.5 6.3646-1.56 25.299-1.56 33.056z" fill="#333" stroke-width=".99723"/>
        <rect x="188" width="5.36" height="107.11" fill="#00b2ec"/>
        <path d="m210.79 24.81c0 7.18 5.15 12.33 13 12.33s12.8-5.15 12.8-12.33c0-7-5-12.33-12.8-12.33s-13 5.31-13 12.33zm6.55 0c0-4.06 2.81-6.71 6.4-6.71a6.41 6.41 0 0 1 6.4 6.71c0 4.06-2.65 6.87-6.4 6.87s-6.4-2.96-6.4-6.87z" fill="#333"/>
        <path d="m248.86 36.67h6.08v-16.07a7.23 7.23 0 0 1 5.15-2.34c3.28 0 5.31 1.87 5.31 5.62v12.8h5.93v-13.89c0-7.33-3.9-10.14-9.67-10.14a9.23 9.23 0 0 0-6.71 2.81v-2.33h-6.09z" fill="#333"/>
        <path d="m284.44 30.13c0 4.84 2 7 5.62 7a9.9 9.9 0 0 0 6.24-2l-1.25-4.53a4.9 4.9 0 0 1-2.5 0.94c-1.4 0-2-1.09-2-3.9v-27.64h-6.11z" fill="#333"/>
        <path d="m307.85 36.67h5.93v-23.54h-5.93zm-0.62-32.15a3.65 3.65 0 0 0 3.75 3.9 3.59 3.59 0 0 0 3.43-3.9 3.46 3.46 0 0 0-3.47-3.39 3.54 3.54 0 0 0-3.72 3.4z" fill="#333"/>
        <path d="m327.82 36.67h6.12v-16.07a7.23 7.23 0 0 1 5.15-2.34c3.28 0 5.31 1.87 5.31 5.62v12.8h5.93v-13.89c0-7.33-3.9-10.14-9.67-10.14a9.23 9.23 0 0 0-6.71 2.81v-2.33h-6.09z" fill="#333"/>
        <path d="m381.94 29.96a10.12 10.12 0 0 1-6.71 2.18c-3.59 0-6.4-1.87-7-5.46h17a9.12 9.12 0 0 0 0.47-3.28c0-6.55-5.15-10.92-11.24-10.92-7.8 0-12.48 5.46-12.48 12.33 0 7.49 5.15 12.33 12.64 12.33a14.55 14.55 0 0 0 9.05-2.81zm-7.8-12.48c3.59 0 5.46 2.34 5.46 5.15h-11.52c0.63-3.12 2.5-5.15 6.09-5.15z" fill="#333"/>
        <path d="m210.79 78.96c0 7 5.15 12.33 13 12.33s12.8-5.31 12.8-12.33-5-12.33-12.8-12.33-13 5.31-13 12.33zm6.55 0c0-4.06 2.81-6.71 6.4-6.71a6.41 6.41 0 0 1 6.4 6.71c0 4.06-2.65 6.71-6.4 6.71s-6.4-2.81-6.4-6.71z" fill="#333"/>
        <path d="m249.17 90.82h6.09v-17.94h6.24v-5.62h-6.24v-3.43c0-3.28 1.4-4.68 3.43-4.68a5.14 5.14 0 0 1 3.43 1.25l2-4.68a9.67 9.67 0 0 0-6.55-2.18c-5.31 0-8.43 3.28-8.43 9.83z" fill="#333"/>
        <path d="m273.52 90.82h6.09v-17.94h6.4v-5.62h-6.4v-3.43c0-3.28 1.4-4.68 3.43-4.68a4.86 4.86 0 0 1 3.43 1.25l2-4.68a9.67 9.67 0 0 0-6.53-2.19c-5.31 0-8.43 3.28-8.43 9.83z" fill="#333"/>
        <path d="m315.65 84.13a11 11 0 0 1-6.71 2.18c-3.59 0-6.4-1.87-7-5.46h17a9.72 9.72 0 0 0 0.47-3.28c0-6.55-5.15-10.92-11.24-10.92-7.8 0-12.48 5.46-12.48 12.33 0 7.49 5.15 12.33 12.64 12.33a14.55 14.55 0 0 0 9.05-2.81zm-7.8-12.48c3.59 0 5.46 2.34 5.46 5.15h-11.55c0.63-3.14 2.5-5.17 6.09-5.17z" fill="#333"/>
        <path d="m331.25 90.82h6.09v-15.92a4.1 4.1 0 0 1 3.9-2.5 5.14 5.14 0 0 1 3 0.94l2.18-5.62a5.22 5.22 0 0 0-3.59-0.94 6.2 6.2 0 0 0-5.46 2.65v-2.18h-6.09z" fill="#333"/>
    </g>
</svg>
