<svg xmlns="http://www.w3.org/2000/svg" xml:space="preserve" width="800px" height="150px" version="1.1" style="shape-rendering:geometricPrecision; text-rendering:geometricPrecision; image-rendering:optimizeQuality; fill-rule:evenodd; clip-rule:evenodd" viewBox="0 0 800 150" xmlns:xlink="http://www.w3.org/1999/xlink">
    <g>
        <path fill="#fff" d="M263 122c-20,0 -35,-16 -35,-35 0,-19 15,-35 35,-35 11,0 21,5 28,14l-45 16 8 21 68 -25c-4,-29 -29,-52 -59,-52 -34,0 -61,28 -61,61 0,33 27,60 61,60 24,0 45,-14 54,-34l-23 -10c-6,11 -18,19 -31,19z" />
        <path fill="#fff" d="M738 148c-34,0 -61,-27 -61,-60 0,-33 27,-60 61,-60 33,0 60,27 60,60l0 0c0,33 -27,60 -60,60zm35 -60c0,-19 -16,-35 -35,-35 -20,0 -35,16 -35,35 0,19 15,35 35,35 19,0 35,-16 35,-35z" />
        <path fill="#fff" d="M534 88c0,-33 -27,-60 -60,-60 -34,0 -61,27 -61,60 0,33 27,60 61,60 5,0 11,0 16,-2l0 -27c-5,3 -10,4 -16,4 -20,0 -36,-16 -36,-35 0,-19 16,-35 36,-35 19,0 35,16 35,35 0,0 0,0 0,0l0 0 0 56 25 0 0 -56 0 0c0,0 0,0 0,0z" />
        <path fill="#fff" d="M392 123c-18,0 -27,-12 -27,-37l0 -28 34 0 0 -25 -34 0 0 -32 -27 0 0 98c0,18 11,50 54,50l8 0 0 -26 -8 0z" />
        <path fill="#fff" d="M645 106c-6,10 -18,17 -30,17 -20,0 -35,-16 -35,-35 0,-19 15,-35 35,-35 11,0 22,6 28,15l21 -15c-11,-15 -29,-25 -49,-25 -34,0 -61,27 -61,60 0,33 27,60 61,60 22,0 41,-11 51,-29l-21 -13z" />
        <path fill="#fff" d="M183 147l0 -61c0,-17 -2,-38 -24,-52 -8,-5 -18,-7 -28,-7 -10,0 -20,2 -28,7 -4,3 -8,5 -10,8 -3,-3 -7,-5 -11,-8 -8,-5 -17,-7 -28,-7 -10,0 -20,2 -28,7 -21,14 -24,35 -24,52l0 61 28 0 0 -61c0,-11 2,-23 13,-29 4,-2 7,-3 11,-3 4,0 8,1 11,3 11,5 13,15 14,25 0,2 -1,3 -1,4l0 61 1 0 28 0 0 0 0 -61c0,-1 0,-2 0,-4 0,-10 3,-20 13,-25 3,-2 7,-3 11,-3 4,0 8,1 11,3 12,6 13,18 13,29l0 61 28 0z" />
    </g>
</svg>